<svg xmlns="http://www.w3.org/2000/svg" xmlns:xlink="http://www.w3.org/1999/xlink" id="Layer_1" x="0px" y="0px" width="403.775px" height="253.745px" viewBox="0 0 403.775 253.745" xml:space="preserve"> <g> <g> <g> <path fill="#F3F2F9" d="M375.15,225.03V27.012c0-13.67-11.082-24.751-24.752-24.751H53.375 c-13.672,0-24.752,11.081-24.752,24.751V225.03H375.15z"></path> </g> <path fill="#4F5DAA" d="M375.15,227.288H28.623c-1.248,0-2.26-1.01-2.26-2.258V27.012C26.363,12.118,38.482,0,53.377,0h297.021 c14.895,0,27.012,12.118,27.012,27.012V225.03C377.41,226.278,376.4,227.288,375.15,227.288z M30.883,222.77h342.008V27.012 c0-12.401-10.09-22.492-22.492-22.492H53.377c-12.404,0-22.494,10.09-22.494,22.492V222.77z"></path> </g> <g> <g> <path fill="#A8B0D9" d="M363.639,32.796c0-12.762-7.064-17.028-19.826-17.028H58.67c-12.766,0-18.535,4.266-18.535,17.028v36.193 h323.504V32.796z"></path> <path fill="#4F5DAA" d="M363.639,71.249H40.135c-1.248,0-2.26-1.011-2.26-2.26V32.796c0-13.52,6.219-19.289,20.795-19.289 h285.143c9.482,0,22.088,2,22.088,19.289v36.193C365.9,70.238,364.889,71.249,363.639,71.249z M42.396,66.729h318.982V32.796 c0-10.628-4.926-14.769-17.566-14.769H58.67c-12.168,0-16.273,3.727-16.273,14.769V66.729z"></path> </g> <g> <g> <rect x="40.135" y="68.989" fill="#F3F2F9" width="323.504" height="156.041"></rect> </g> <path fill="#4F5DAA" d="M363.639,227.288H40.135c-1.248,0-2.26-1.01-2.26-2.258V68.989c0-1.249,1.012-2.261,2.26-2.261h323.504 c1.25,0,2.262,1.012,2.262,2.261V225.03C365.9,226.278,364.889,227.288,363.639,227.288z M42.396,222.77h318.982V71.249H42.396 V222.77z"></path> </g> </g> <g> <g> <path fill="#F3F2F9" d="M28.623,251.485H375.15c0,0,26.365,0,26.365-26.453H2.26C2.26,251.485,28.623,251.485,28.623,251.485z"></path> </g> <path fill="#4F5DAA" d="M375.15,253.745H28.623C28.336,253.745,0,253.417,0,225.032c0-1.25,1.012-2.262,2.26-2.262h399.256 c1.248,0,2.26,1.012,2.26,2.262C403.775,253.417,375.436,253.745,375.15,253.745z M4.592,227.292 c1.41,21.676,23.08,21.934,24.031,21.934H375.15c0.949-0.004,22.617-0.34,24.031-21.934H4.592z"></path> </g> <g> <circle fill="#4F5DAA" cx="72.405" cy="42.821" r="7.187"></circle> <circle fill="#6A71B5" cx="97.86" cy="42.821" r="7.187"></circle> <g> <circle fill="#F3F2F9" cx="123.314" cy="42.821" r="7.186"></circle> </g> </g> <path fill="#AFACD6" d="M181.656,152.12c0,31.314-25.387,56.705-56.703,56.705S68.25,183.434,68.25,152.12 c0-31.316,25.387-56.706,56.703-56.706S181.656,120.803,181.656,152.12z"></path> <path fill="#4F5DAA" d="M59.439,238.167H35.801c-1.25,0-2.262-1.012-2.262-2.26c0-1.25,1.012-2.262,2.262-2.262h23.639 c1.246,0,2.26,1.012,2.26,2.262C61.699,237.155,60.686,238.167,59.439,238.167z"></path> <path fill="#4F5DAA" d="M363.506,238.167H94.357c-1.248,0-2.26-1.012-2.26-2.26c0-1.25,1.012-2.262,2.26-2.262h269.148 c1.248,0,2.26,1.012,2.26,2.262C365.766,237.155,364.754,238.167,363.506,238.167z"></path> </g> <line fill="#4F5DAA" stroke="#4F5DAA" stroke-width="4" stroke-linecap="round" stroke-linejoin="round" stroke-miterlimit="10" x1="195.741" y1="112.249" x2="345.074" y2="112.249"></line> <line fill="#4F5DAA" stroke="#4F5DAA" stroke-width="4" stroke-linecap="round" stroke-linejoin="round" stroke-miterlimit="10" x1="195.741" y1="137.551" x2="345.074" y2="137.551"></line> <line fill="#4F5DAA" stroke="#4F5DAA" stroke-width="4" stroke-linecap="round" stroke-linejoin="round" stroke-miterlimit="10" x1="195.741" y1="162.854" x2="345.074" y2="162.854"></line> <line fill="#4F5DAA" stroke="#4F5DAA" stroke-width="4" stroke-linecap="round" stroke-linejoin="round" stroke-miterlimit="10" x1="195.741" y1="188.157" x2="345.074" y2="188.157"></line> <text transform="matrix(1 0 0 1 90.6738 162.855)" fill="#FFFFFF" font-family="'Quantify'" font-size="34.0224">Blog</text> </svg>